<svg width="50" height="29" viewBox="0 0 50 29" fill="none" xmlns="http://www.w3.org/2000/svg">
<path d="M49.296 26.7349L38.084 13.7821C37.5567 13.1719 37.5567 12.2682 38.084 11.6579L46.1991 2.26116C46.9646 1.37704 46.3358 0 45.1681 0H31.8355C30.7186 0 29.6603 0.485094 28.93 1.3301L21.3733 10.0813C20.8578 10.676 20.1119 11.0202 19.323 11.0202H8.25157C7.13856 11.0202 6.08023 11.5053 5.34995 12.3464L0.335576 18.1362C-0.429858 19.0204 0.198891 20.4013 1.36657 20.4013H14.6992C15.8122 20.4013 16.8705 19.9162 17.6008 19.0751L20.3696 15.879C20.7524 15.4369 21.4358 15.4369 21.8185 15.879L32.0308 27.6777C32.7611 28.5188 33.8194 29.0039 34.9324 29.0039H48.265C49.4366 29.0039 50.0614 27.6269 49.296 26.7388V26.7349Z" fill="white"/>
</svg>
