<svg width="700" height="90" viewBox="0 0 700 90" fill="none" xmlns="http://www.w3.org/2000/svg">
<path d="M166.639 70.845H185.479V20.534H210.376V3.25098H166.639V70.845Z" fill="#FEE2C6"/>
<path d="M126.241 16.3861C133.692 16.3861 138.136 19.6418 139.362 26.5275H111.769C113.883 20.1283 119.091 16.3861 126.241 16.3861ZM126.043 55.2928C116.959 55.2928 111.294 49.3551 110.777 39.7002H156.879C156.879 39.7002 157.168 36.1949 157.168 32.5837C157.168 12.1074 145.125 0.600098 126.241 0.600098C106.29 0.600098 92.416 15.3258 92.416 36.2885C92.416 57.5443 106.099 72.1702 126.043 72.1702C144.533 72.1702 156.971 61.3365 157.359 45.457H138.869C137.803 51.7065 133.273 55.3115 126.043 55.3115V55.2928Z" fill="#FEE2C6"/>
<path d="M642.445 3.25098V20.534H661.668V70.845H680.214V20.534H699.436V3.25098H642.445Z" fill="#FEE2C6"/>
<path d="M58.3361 3.25085L45.3355 44.6609L32.6856 3.25085H11.8382L0.966797 70.8449H18.2947L24.9077 28.7986L37.6829 70.8449H52.5622L65.7883 28.045L72.1446 70.8449H89.7668L78.8953 3.25085H58.3361Z" fill="#FEE2C6"/>
<path d="M238.03 56.349C233.18 56.349 230.8 54.0077 230.8 50.5924C230.8 47.3708 232.484 45.3291 237.713 43.8556L254.237 39.2728V40.5216C254.257 42.6187 253.85 44.6985 253.041 46.6379C252.231 48.5772 251.035 50.3368 249.524 51.8125C248.013 53.2881 246.217 54.45 244.243 55.2292C242.269 56.0084 240.156 56.3892 238.03 56.349ZM244.854 0.618828C224.469 0.618828 212.889 10.4774 213.383 27.2664H233.18C233.275 20.1425 236.979 16.7335 244.854 16.7335C250.495 16.7335 254.06 19.0748 254.06 22.59C254.06 24.8377 253.173 25.7118 249.704 26.6858L233.775 30.9813C218.53 35.0834 211.699 41.327 211.699 51.7725C211.699 63.9724 220.708 72.1702 233.972 72.1702C244.266 72.1702 250.996 68.0744 254.357 60.3636V70.6094H272.666V25.2185C272.666 8.69803 262.081 0.600098 244.854 0.600098V0.618828Z" fill="#FEE2C6"/>
<path d="M573.345 3.25098H552.003L536.963 28.354H529.25V3.25098H509.908V70.845H529.25V44.9699H536.847L553.003 70.845H574.851L553.509 36.3716L573.345 3.25098Z" fill="#FEE2C6"/>
<path d="M396.424 56.349C391.772 56.349 389.45 54.0077 389.45 50.5924C389.45 47.3708 391.097 45.4165 396.225 43.9555L412.396 39.3727V40.5403C412.396 49.8182 405.509 56.349 396.405 56.349H396.424ZM403.187 0.618828C383.238 0.618828 371.91 10.4774 372.394 27.2664H391.76C391.853 20.1425 395.476 16.7335 403.187 16.7335C408.717 16.7335 412.186 19.0748 412.186 22.59C412.186 24.8377 411.319 25.7118 407.925 26.6858L392.342 30.9813C377.429 35.0834 370.746 41.327 370.746 51.7725C370.746 63.9724 379.559 72.1702 392.534 72.1702C402.605 72.1702 409.188 68.1743 412.477 60.3636V70.6094H430.388V25.2185C430.388 8.69803 420.033 0.600098 403.187 0.600098V0.618828Z" fill="#FEE2C6"/>
<path d="M471.15 54.7809C462.892 54.7809 457.901 48.9131 457.901 36.4892C457.901 24.1654 462.99 18.1036 471.34 18.1036C479.211 18.1036 483.914 24.0716 483.914 36.4892C483.914 49.401 479.402 54.7809 471.144 54.7809H471.15ZM476.332 0.600098C467.46 0.600098 460.817 5.19808 458.189 12.5298V2.26412H439.666V89.4001H458.189V60.6613C460.934 67.9305 467.54 72.2844 476.332 72.2844C491.681 72.2844 501.959 60.1546 501.959 36.4892C501.959 12.8238 491.687 0.600098 476.332 0.600098Z" fill="#FEE2C6"/>
<path d="M334.016 3.25098L321.014 44.661L308.364 3.25098H287.509L276.643 70.845H293.972L300.579 28.7987L313.355 70.845H328.235L341.469 28.0451L347.819 70.845H365.443L354.577 3.25098H334.016Z" fill="#FEE2C6"/>
<path d="M606.02 16.3861C613.471 16.3861 617.915 19.6418 619.147 26.5275H591.548C593.662 20.1283 598.87 16.3861 606.02 16.3861ZM605.828 55.2928C596.83 55.2928 591.086 49.3551 590.562 39.7002H636.664C636.664 39.7002 636.947 36.1949 636.947 32.5837C636.947 12.1074 624.904 0.600098 606.02 0.600098C586.075 0.600098 572.201 15.3258 572.201 36.2885C572.201 57.5443 585.884 72.1702 605.828 72.1702C624.318 72.1702 636.756 61.3365 637.144 45.457H618.654C617.582 51.7065 613.052 55.3115 605.828 55.3115V55.2928Z" fill="#FEE2C6"/>
</svg>
